PathFileType	4	(X/Y/Z)	C:\Users\°ÂÌØÂü\Desktop\20210112\bx_y_5_901-Unnamed.trc
DataRate	CameraRate	NumFrames	NumMarkers	Units	OrigDataRate	OrigDataStartFrame	OrigNumFrames
50.00	50.00	       5	0	mm	50.00	1	       527
Frame#	Time	
		

1	0.000	-696.95477	-61.59438	1560.01843	-727.85718	294.10571	1540.17566	-619.53192	113.95488	1435.05542	-611.02081	1.04349	1047.11462	-605.42023	226.64037	1065.28442	-660.05554	286.34439	873.41907	-605.60657	2.92694	801.23590	-606.27826	218.20332	821.19263	-710.38763	280.00626	744.76300	-741.28143	255.07210	636.07428	-707.87610	83.48711	571.49115	-708.53430	145.81767	572.71399	-681.02295	22.64160	520.31769	-744.08740	249.35616	573.60254	-690.63226	207.41795	533.09192	-784.67163	259.13315	500.52655	-717.35870	79.80853	215.88199	-664.77716	-65.87130	164.34280	-712.97205	153.52728	217.35446	-623.94745	-77.02109	160.96599	-771.82886	223.45410	204.25697	-882.57581	295.99649	144.46762	-674.19440	57.11243	156.02148	-561.03198	-43.91740	163.68559	-602.25690	19.74344	165.36137	-675.03705	172.00510	157.90028	-517.97467	-72.92146	143.02618	-594.82367	223.74072	174.36340	-666.82666	299.26291	159.82895	-629.65765	307.38965	161.54327	-561.63959	262.77820	165.79092	-528.13885	304.07614	146.58961	-647.10046	129.31085	1852.18469	-796.62817	173.05183	182.83029	-811.51807	101.65249	1042.48840	-794.49799	56.91719	174.72485	-775.19922	-33.60024	486.55350	-766.67163	-3.90116	205.68762	-875.93359	-78.96604	141.13327	-698.26489	-47.27792	702.86084	-717.57208	-24.30232	612.13190	-730.21741	-22.54655	565.84222	-663.10547	-61.09289	854.15479	
2	0.020	-697.37830	-61.64772	1560.06055	-728.50885	293.87811	1540.34814	-619.67407	114.03588	1435.36267	-611.14111	1.09193	1047.12219	-606.01508	226.61481	1065.10608	-660.10345	286.36734	873.54504	-605.95380	3.22904	801.29614	-606.48450	218.40358	821.28656	-710.41541	280.15146	744.75806	-741.39777	255.07228	635.95819	-709.16632	83.80152	571.57892	-708.44806	146.06432	572.84723	-681.12531	22.51769	520.30585	-744.46149	249.75781	574.01178	-690.63226	207.41795	533.09192	-784.62225	259.44803	500.64786	-717.55438	79.65802	216.17982	-664.65222	-65.81892	164.41982	-712.98871	153.25996	217.44434	-623.87592	-76.77100	160.61310	-771.98773	223.52042	204.42325	-882.65814	296.10150	144.52324	-674.16730	57.03418	156.09991	-560.93842	-43.88058	163.82207	-602.22931	19.90949	165.42342	-675.03705	172.00510	157.90028	-518.11261	-72.88466	142.75020	-594.80621	223.66533	174.29828	-666.94708	299.33383	159.86356	-629.68835	307.46341	161.74786	-561.82422	262.88339	165.92955	-528.13831	304.00220	146.62164	-647.73871	128.70076	1852.14453	-796.77277	172.96207	183.09433	-811.70544	101.54803	1042.38208	-794.45282	56.78946	174.66766	-775.25085	-33.50639	486.41968	-766.78284	-3.90882	205.89120	-875.64880	-79.04969	141.18465	-698.43439	-47.16513	703.13074	-717.66168	-24.17085	612.12146	-730.30670	-22.50074	565.75568	-663.04254	-61.26142	854.48846	
3	0.040	-697.59216	-61.53562	1560.01587	-729.00568	293.68494	1540.16772	-620.01990	114.28863	1435.43030	-611.40442	0.81371	1047.29077	-605.93774	226.49037	1065.35669	-660.92920	284.89459	872.54663	-605.86517	3.04857	801.36627	-606.48450	218.40358	821.28656	-710.52820	279.86011	744.62848	-741.51855	255.05840	636.07068	-707.87610	83.48711	571.49115	-708.39984	145.87517	572.86157	-681.16528	22.81724	520.32031	-744.48956	249.48390	573.75159	-690.63226	207.41795	533.09192	-784.54578	259.38159	500.38446	-717.38702	79.74069	216.21303	-664.68085	-65.90541	164.57669	-713.03772	153.34000	217.61803	-623.97321	-76.91091	160.70647	-771.94275	223.40369	204.25717	-882.51746	296.10852	144.58578	-674.21619	57.12974	155.97040	-561.01697	-43.84313	163.89595	-602.28900	19.73349	165.31079	-675.10669	172.25883	157.79695	-518.03888	-72.85914	142.82062	-594.74176	223.47215	174.39462	-666.82123	299.16864	159.67471	-629.66321	307.32181	161.64761	-561.70056	262.80173	165.90132	-528.33417	303.81036	146.45294	-648.08295	129.14607	1852.13147	-796.70306	172.94221	183.04259	-811.81689	101.56167	1042.28247	-794.46564	56.83955	174.75745	-775.31622	-33.59681	486.41653	-766.61914	-3.98087	205.81387	-876.00482	-78.97700	141.05211	-698.46844	-47.18958	702.98499	-717.70770	-24.27882	612.07666	-730.21741	-22.54655	565.84222	-664.10516	-60.41071	853.52789	
4	0.060	-697.79211	-61.67276	1559.96204	-729.05652	293.74628	1540.15625	-620.47876	113.80124	1435.27490	-611.50836	0.86658	1047.24402	-606.21118	226.51515	1065.33044	-660.97577	285.04184	872.78235	-605.95380	3.22904	801.29614	-606.57233	218.63651	821.34515	-710.52820	279.86011	744.62848	-741.55164	255.04326	635.80792	-709.19580	83.76440	571.82941	-708.39984	145.87517	572.86157	-681.25818	22.67264	520.24115	-744.46130	249.89937	574.19580	-690.80188	207.37714	533.06451	-784.81293	259.40399	500.68466	-717.32562	79.70253	216.03241	-664.71289	-65.78797	164.34171	-713.03772	153.34000	217.61803	-623.79950	-76.94811	160.82303	-771.82886	223.45410	204.25697	-882.50702	296.02576	144.51955	-674.19440	57.11243	156.02148	-561.04431	-43.81636	163.87276	-602.22607	19.81287	165.42986	-674.89044	172.10954	158.00424	-517.97467	-72.92146	143.02618	-594.88989	223.45993	174.20822	-666.92145	299.31628	159.58044	-629.73846	307.50702	161.54657	-561.75610	262.85120	165.87422	-528.21838	304.00342	146.47696	-648.85431	128.81570	1852.20642	-796.69598	172.92924	182.92503	-811.89099	101.66552	1042.11865	-794.50708	56.84597	174.69994	-775.25085	-33.50639	486.41968	-766.67163	-3.90116	205.68762	-876.20258	-79.09181	141.36234	-698.57617	-47.10712	703.14612	-717.81610	-24.05416	611.91656	-730.21741	-22.54655	565.84222	-663.73547	-60.89159	854.01294	
5	0.080	-698.05963	-61.62042	1559.83069	-729.21649	293.80978	1540.09058	-621.08313	114.09587	1435.16284	-611.72913	0.85826	1047.16345	-606.36768	226.34633	1065.57788	-660.73700	286.01520	873.37402	-606.11316	3.11969	801.33289	-606.66254	218.38638	821.58252	-710.55597	280.00534	744.62354	-741.67157	255.08665	635.80438	-708.06989	83.74339	571.23273	-708.37915	145.88400	572.88428	-681.25818	22.67264	520.24115	-744.65936	249.45375	574.06580	-690.80188	207.37714	533.06451	-784.32019	258.99475	499.93643	-717.50183	79.71510	216.07433	-664.68597	-65.77589	164.50905	-713.03772	153.34000	217.61803	-623.86902	-76.84200	160.59613	-771.85278	223.52946	204.17136	-882.49176	295.99121	144.50285	-674.25879	57.17408	155.90121	-561.01898	-43.95811	163.75053	-602.25690	19.74344	165.36137	-675.03705	172.00510	157.90028	-518.02991	-73.21481	143.19229	-594.86438	223.63182	174.29636	-666.86414	299.18011	159.73680	-629.62341	307.41959	161.60489	-561.75610	262.85120	165.87422	-528.22504	303.94693	146.59235	-649.35675	129.20094	1852.44482	-796.68829	172.95001	182.88661	-811.90747	101.60818	1042.19067	-794.50488	56.76354	174.72830	-775.36096	-33.48544	486.26987	-766.61914	-3.98087	205.81387	-876.18384	-78.95393	141.52309	-698.48462	-47.01414	702.96838	-717.61249	-24.15301	612.12042	-730.21741	-22.54655	565.84222	-663.43732	-61.11495	854.09601	
